<svg width="285" height="285" viewBox="0 0 285 285" fill="none" xmlns="http://www.w3.org/2000/svg">
<path fill-rule="evenodd" clip-rule="evenodd" d="M129.5 185C114.312 185 102 197.312 102 212.5C102 227.688 114.312 240 129.5 240C144.688 240 157 227.688 157 212.5C157 197.312 144.688 185 129.5 185ZM130 202C123.925 202 119 206.925 119 213C119 219.075 123.925 224 130 224C136.075 224 141 219.075 141 213C141 206.925 136.075 202 130 202Z" fill="white"/>
<path fill-rule="evenodd" clip-rule="evenodd" d="M123.674 204C120.847 205.991 119 209.28 119 213C119 216.152 120.326 218.994 122.45 221L44.5 221C39.8056 221 36 217.194 36 212.5C36 207.806 39.8056 204 44.5 204L123.674 204ZM136.326 204L237.5 204C242.194 204 246 207.806 246 212.5C246 217.194 242.194 221 237.5 221L137.55 221C139.674 218.994 141 216.152 141 213C141 209.28 139.153 205.991 136.326 204Z" fill="white"/>
<path fill-rule="evenodd" clip-rule="evenodd" d="M192.5 114C177.312 114 165 126.312 165 141.5C165 156.688 177.312 169 192.5 169C207.688 169 220 156.688 220 141.5C220 126.312 207.688 114 192.5 114ZM193 131C186.925 131 182 135.925 182 142C182 148.075 186.925 153 193 153C199.075 153 204 148.075 204 142C204 135.925 199.075 131 193 131Z" fill="white"/>
<path fill-rule="evenodd" clip-rule="evenodd" d="M186.674 133C183.847 134.991 182 138.28 182 142C182 145.152 183.326 147.994 185.45 150L44.5 150C39.8056 150 36 146.194 36 141.5C36 136.806 39.8056 133 44.5 133L186.674 133ZM199.326 133L237.5 133C242.194 133 246 136.806 246 141.5C246 146.194 242.194 150 237.5 150L200.55 150C202.674 147.994 204 145.152 204 142C204 138.28 202.153 134.991 199.326 133Z" fill="white"/>
<path fill-rule="evenodd" clip-rule="evenodd" d="M103.5 100C118.688 100 131 87.6878 131 72.5C131 57.3122 118.688 45 103.5 45C88.3122 45 76 57.3122 76 72.5C76 87.6878 88.3122 100 103.5 100ZM104 83C110.075 83 115 78.0751 115 72C115 65.9249 110.075 61 104 61C97.9249 61 93 65.9249 93 72C93 78.0751 97.9249 83 104 83Z" fill="white"/>
<path fill-rule="evenodd" clip-rule="evenodd" d="M110.326 81C113.153 79.0093 115 75.7203 115 72C115 68.8479 113.674 66.0055 111.55 64H237.5C242.194 64 246 67.8056 246 72.5C246 77.1944 242.194 81 237.5 81H110.326ZM97.6738 81H44.5C39.8056 81 36 77.1944 36 72.5C36 67.8056 39.8056 64 44.5 64H96.4501C94.3258 66.0055 93 68.8479 93 72C93 75.7203 94.8469 79.0093 97.6738 81Z" fill="white"/>
<rect x="8.5" y="8.5" width="268" height="268" rx="19.5" stroke="white" stroke-width="17"/>
</svg>
